<?xml version="1.0" encoding="UTF-8"?> <svg xmlns="http://www.w3.org/2000/svg" xmlns:xlink="http://www.w3.org/1999/xlink" version="1.1" id="Layer_1" x="0px" y="0px" viewBox="0 0 80 80" style="enable-background:new 0 0 80 80;" xml:space="preserve"> <style type="text/css"> .st0{fill:#40A957;} .st1{fill:#DECAB2;} .st2{fill:#C3B19D;} </style> <g> <path class="st0" d="M41.4,44.1c0,2.8,0,5.5,0,8.2c0,0.9,0.2,1.2,1.1,1.1c1.8-0.1,1.5,0.2,1.6-1.6c0-1.5,0-3.1,0.3-4.6 c0.1-0.8,0.8-1.5,1.4-2.1c0.4-0.5,1.1-0.8,1.6-1.2c0.3,0.3,0.9,0.9,1.4,1.5c0.4,0.4,0.8,0.4,1.1,0c0.6-0.6,1.1-1.2,1.2-1.5 c0.9,0.7,1.9,1.2,2.6,2c0.5,0.5,0.7,1.3,0.8,2c0.1,1.4,0.1,2.9,0.1,4.4c0,0.7,0.2,1.1,1,1c0.3,0,0.7,0.1,0.9,0 c0.3-0.1,0.6-0.4,0.6-0.6c0-1.1,0.1-2.2,0-3.3c-0.1-0.6-0.5-1.2-0.8-1.7c0.8-1.4,1.8-2.9,2.7-4.4c0,3.3,0,6.6,0,10 c0.9,0,1.6,0,2.3,0c0-0.9-0.1-1.7,0-2.5c0.2-2.1,1.6-3.6,3.3-4.6c1.4-0.9,2.7-1.8,3.6-3.2c0.1,0,0.2,0.1,0.3,0.1 c-0.3,0.8-0.5,1.7-0.9,2.4c-0.4,0.7-0.7,1.2-0.2,2c0.3,0.4,0.3,0.9,0.4,1.6c-0.3-0.2-0.4-0.2-0.4-0.3c-1.2-1.7-3-1.3-3.8,0.7 c-0.2,0.5-0.3,1.1-0.3,1.7c-0.1,1.3,0.6,2.4,1.6,2.7c1,0.4,1.8,0.1,2.7-1c0.7,0.9,1.4,1.8,2.2,2.8c-1.9,0.6-3.8,0.9-5.8,0.3 c-0.6-0.2-1.2-0.3-1.8-0.3c-2.8,0-5.6,0-8.5,0c-0.2,0-0.5,0-0.9-0.1c0-1.7,0-3.4,0-5.1c0-0.6,0-1.1-0.1-1.7 c-0.1-0.7-0.6-1.1-1.3-1.1c-0.7,0.1-1,0.5-1,1.2c0,1.7,0,3.4,0,5.1c0,1.7,0,1.7-1.9,1.5c0-0.6,0-1.1,0-1.7c0-1.5,0.1-3,0-4.5 c0-0.5-0.3-1.2-0.7-1.5c-0.7-0.6-1.6-0.1-1.7,0.9c-0.1,1.1-0.1,2.2-0.1,3.3c0,1,0,2,0,2.9c0,0.2-0.3,0.6-0.4,0.6 c-3.9,0-7.9,0-11.9,0c-0.1-2.4,0.2-4.6,1.2-6.7C35.9,46.1,38.9,45.6,41.4,44.1z M39.5,48c-2.6,0.9-3.8,2.8-3.9,5.3 c1.3,0,2.6,0,3.9,0C39.5,51.6,39.5,49.8,39.5,48z"></path> <path class="st1" d="M36.4,38.7c-2.1-0.7-2-2.3-1.9-3.9c0-1.1,0.1-2.2,0-3.3c-0.1-0.9,0.2-1.5,1-1.9c0.3-0.1,0.5-0.4,0.7-0.5 c0-0.1,0-0.2-0.1-0.3c-1.6-0.7-1.7-2.1-1.6-3.6c0.1-1.5,0-2.9,0-4.4c0-0.4,0.2-1,0.5-1.1c2.1-0.9,2.5-2.5,2.5-4.5 c0-0.7,0-1.2-0.6-1.8c-1-1-1.1-2.3-0.5-3.6c0.2,0.7,0.4,1.7,0.8,2.5c0.5,0.9,1.4,1.2,2.5,1c-0.5,0.3-0.9,0.6-1.5,0.9 c0.1,1.1,0.1,2.3,0.2,3.5c0,0.3,0.4,0.6,0.7,0.7c1.9,0.8,2.4,2.3,2.1,4.3c-0.2,1.2-0.1,2.5,0,3.7c0,0.8-0.1,1.4-0.8,1.7 c-0.3,0.2-0.6,0.5-0.8,0.7c0.1,0.1,0.1,0.2,0.1,0.2c1.5,0.6,1.7,1.8,1.6,3.2c-0.1,1.3-0.1,2.6,0,3.9c0.1,0.9-0.2,1.6-1,2 c-0.2,0.1-0.4,0.3-0.7,0.6c0.7,0.9,2.2,1.3,1.7,2.8c-0.1,0.3-0.6,0.6-0.8,0.7c-0.4-0.6-0.6-1.3-1-1.7c-1.6-1.3-1.6-1.2-3.2,0 c-0.3,0.2-0.5,0.6-0.5,1c-0.1,0.8-0.1,1.5,0,2.3c0.1,0.9-0.4,1.4-1.3,1.9c0-1.9,0-3.6,0-5.3c0-0.3,0.4-0.5,0.6-0.7 C35.5,39.4,35.9,39.1,36.4,38.7z M40.2,23.8c0-0.5-0.1-1.1,0-1.6c0.3-1.6-1.1-1.8-1.9-2.5c-0.7-0.6-1,0.3-1.5,0.6 c-0.5,0.3-1.1,0.5-1.1,1.3c0,1.5,0,3,0,4.5c0,0.4,0.3,0.8,0.6,1.1c1.7,1.3,1.7,1.3,3.3-0.1c0.3-0.2,0.5-0.7,0.5-1.1 C40.3,25.2,40.2,24.5,40.2,23.8z M40.2,33.9c-0.2-1.3,0.6-2.8-1.2-3.6c-0.5-0.2-1.1-0.7-1.3-0.5c-0.8,0.6-2,0.8-2,2.2 c0,1.4,0,2.8,0,4.2c0,0.6,1.6,2.2,2.2,2.2c0.1,0,0.3-0.1,0.4-0.2c1.2-0.7,2.2-1.5,1.9-3.2C40.2,34.6,40.2,34.3,40.2,33.9z"></path> <path class="st0" d="M33,62.7c-1.3,0.2-2.1-0.3-2.6-1.2c-1.1-1.6-1.5-3.5-1.5-5.4c0-7.6,0-15.1,0-22.7c0-1.3-0.1-2.5-1-3.3 c1-1.6,1.9-3.2,2.8-4.6c0,0.1,0,0.4,0,0.7c0,10.1,0,20.3,0,30.4C30.7,58.8,31.2,61,33,62.7z"></path> <path class="st0" d="M23,43.6c0.6,0.6,1.3,1.4,2,2c0.9,0.8,1.1,1.7,1.1,2.8c0,0.5,0,1.1,0,1.6c-0.6,0-1.1,0-1.7,0 c-0.1-0.5-0.1-1-0.2-1.4c-0.1-0.7-0.6-1-1.3-1c-0.7,0-1.1,0.5-1.1,1.1c-0.1,1.4-0.1,2.8,0,4.2c0,0.2,0.5,0.4,0.7,0.4 c1.1,0,2.3,0,3.5,0c0,2.1,0.3,4.2-0.5,6.1c-0.7,1.7-2.1,2.6-3.9,2.6c-0.8,0-1.7-0.1-2.6-0.1c0.8-1,1.5-1.9,2.2-2.8 c1.2,1,2.3,0.7,2.8-0.9c0.7-2.2,0.5-2.6-1.8-2.6c-0.7,0-1.4,0-2.2,0c0-0.3-0.1-0.6-0.1-0.8c0-2,0-4.1,0-6.1c0-1.3,0.3-2.5,1.5-3.4 C22.1,44.9,22.5,44.2,23,43.6z"></path> <path class="st0" d="M14.6,30c0.6-0.8,1.2-1.5,1.6-2.2c0.4-0.7,0.8-1.5,1.2-2.4c0,0.3,0.1,0.6,0.1,0.8c0,9.5,0,19,0,28.5 c0,0.7-0.1,1-0.9,1c-2.1-0.1-4.3,0-6.5,0c1.3-1.2,2.5-2.3,3.7-3.4c0.1,0.1,0.1,0.4,0.3,0.6c0.3,0.2,0.6,0.5,0.9,0.5 c0.3-0.1,0.5-0.5,0.7-0.8c0.1-0.2,0-0.5,0-0.7c0-6.1,0-12.2,0-18.2C15.7,32.2,15.6,30.9,14.6,30z"></path> <path class="st1" d="M44.6,43.2c0-3.7,0.9-6.8,3.9-9.1c1.2-0.9,2.5-1.7,3.8-2.5c0.2-0.2,0.5-0.4,0.6-0.7c0.1-0.6,0.2-1.3,0.3-1.9 c0.1-0.7,0-1.3-0.7-1.8c-1.1-1-1.1-2.8-0.2-4c-0.5,2.6,1,4.4,3.4,3.7c-0.5,0.4-0.7,0.7-1,0.8c-0.8,0.4-1,0.9-0.7,1.8 c0.1,0.1,0.2,0.3,0.2,0.4c-0.3,1.6,1,2,1.9,2.6c2,1.3,3.9,2.6,5,4.8c1.2,2.5,1.3,5.1,1.3,7.8c0,0.4-0.6,0.8-1.1,1.1 c-0.1-1.3-0.2-2.5-0.2-3.8c-0.2-3.6-2-6.2-5-8.1c0,0-0.1,0-0.1,0c-2.8-1.7-2.8-1.7-5.5,0.3c-1,0.8-2,1.6-2.9,2.6 c-1,1.1-1.3,2.5-1.6,3.9C45.9,41.8,45.7,42.7,44.6,43.2z"></path> <path class="st2" d="M45.9,59.7c-0.7,3.4-1.4,6.8-2.1,10.2c-1.4,0.3-1.4,0.3-1.7-1.1c-0.4-2-0.9-4-1.5-6c-0.5,2.4-1,4.8-1.6,7.1 c-1.6,0.2-1.5,0-1.7-1.1c-0.5-2.9-1.2-5.8-1.8-8.7c0-0.2,0-0.4,0-0.5c1-0.3,1.4,0,1.6,1c0.3,1.8,0.7,3.6,1,5.4 c0.1,0.3,0.2,0.6,0.4,0.9c0.5-2.4,1-4.9,1.6-7.3c0.5,0,0.8,0,1.3,0c0.5,2.5,1,4.9,1.6,7.4c0.1,0,0.1,0,0.2,0 c0.3-1.2,0.5-2.4,0.8-3.7c0.2-1.1,0.4-2.1,0.6-3.2C44.6,59.6,44.7,59.5,45.9,59.7z"></path> <path class="st2" d="M50.3,69.4c-0.3,0.2-0.7,0.6-1.1,0.7c-1.4,0.4-2.5-0.2-2.7-1.6c-0.3-1.9,0.4-3,2-3.1c0.3,0,0.5,0,0.8,0 c0.4-0.1,1.1,0.3,1.1-0.5c0-0.5-0.3-1.2-0.7-1.4c-0.4-0.2-1.3,0-1.5,0.4c-0.4,0.7-0.9,0.7-1.5,0.5c-0.1-1.5,0.6-2.2,2.1-2.4 c1.4-0.2,2.6,0.4,2.7,1.7c0.2,2,0.2,4,0.2,6c0,0.2-0.4,0.5-0.5,0.4C50.9,69.9,50.6,69.7,50.3,69.4z M50.3,66.5 c-0.9,0-1.8-0.3-2.3,0.6c-0.2,0.3-0.1,1.1,0.1,1.4c0.2,0.3,0.9,0.3,1.3,0.2C50.3,68.3,50.5,67.5,50.3,66.5z"></path> <path class="st2" d="M65.3,67.7c-0.3,1.9-0.9,2.5-2.6,2.5c-1.6,0-2.5-0.7-2.7-2.3c-0.1-1.2-0.1-2.5,0-3.8c0.1-1.4,1.1-2.2,2.5-2.2 c1.4,0,2.3,0.6,2.6,2c0,0.1,0,0.1,0.1,0.2c0.5,2.2,0.3,2.5-1.9,2.5c-0.7,0-1.3,0-2,0c0,0.9-0.1,1.7,0.7,2.1c0.9,0.4,1.5,0.1,2-0.7 C64.2,67.8,64.8,67.8,65.3,67.7z M64,65.4c0.1-1.6-0.6-2.2-1.7-1.9c-0.8,0.2-1,0.8-1,1.4c0,0.8,0.7,0.4,1.1,0.5 C62.9,65.4,63.4,65.4,64,65.4z"></path> <path class="st2" d="M67.2,62.1c0.1-0.6,0.1-1.3,0.2-1.9c0.4,0,0.7,0,1.2,0c0,0.5-0.2,1.2,0.1,1.6c0.2,0.3,0.8,0.4,1.4,0.7 c0,0.2,0,0.6,0,1c-0.4,0-0.9,0.1-1.4,0.1c0,1.5-0.1,3,0.1,4.4c0,0.3,0.7,0.6,1.1,1c0.1-0.1,0.2-0.1,0.2-0.2c0,0.4,0,0.8,0,1.3 c-1.8,0.4-2.7-0.2-2.8-2.1c0-1.4,0-2.8,0-4.3c-0.4-0.1-0.6-0.1-1-0.2c0-0.4,0-0.7,0-1.1C66.5,62.2,66.8,62.1,67.2,62.1z"></path> <path class="st2" d="M54.9,70c-0.5,0-0.8,0-1.3,0c0-3.7,0-7.4,0-11.1c0.4,0,0.8,0,1.3,0C54.9,62.6,54.9,66.3,54.9,70z"></path> <path class="st2" d="M58.2,70c-1.3,0.2-1.3,0.2-1.3-1c0-3,0-6.1,0-9.1c0-0.3,0-0.6,0-0.9c0.4,0,0.8,0,1.3,0 C58.2,62.6,58.2,66.3,58.2,70z"></path> </g> </svg> 